<svg xmlns="http://www.w3.org/2000/svg" width="24" height="24" viewBox="0 0 24 24" fill="none" stroke="currentColor" stroke-width="2" stroke-linecap="round" stroke-linejoin="round" class="lucide lucide-building-2">
  <path d="M6 22V2a1 1 0 0 1 1-1h10a1 1 0 0 1 1 1v20"/>
  <path d="M18 11h3v2"/>
  <path d="M21 13v9"/>
  <path d="M3 22h18"/>
  <path d="M6 13H3v9"/>
  <path d="M3 13v-2h3"/>
  <rect x="9" y="6" width="2" height="2"/>
  <rect x="13" y="6" width="2" height="2"/>
  <rect x="9" y="10" width="2" height="2"/>
  <rect x="13" y="10" width="2" height="2"/>
  <rect x="9" y="14" width="2" height="2"/>
  <rect x="13" y="14" width="2" height="2"/>
</svg>